<?xml version="1.0" encoding="utf-8" ?>
<svg width="253" height="39" viewBox="0 0 253 39" xmlns="http://www.w3.org/2000/svg" xmlns:xlink="http://www.w3.org/1999/xlink">
    <defs>
        <path id="nygll49c4a" d="M0 0h3.625v5.031H0z"/>
    </defs>
    <g fill="none" fill-rule="evenodd">
        <path d="M71.927 1.067 67.515 37.72a.714.714 0 0 0 .7.807h4.86a.71.71 0 0 0 .699-.632l4.411-36.651a.714.714 0 0 0-.699-.807h-4.86a.71.71 0 0 0-.7.631M124.04 1.067 119.63 37.72a.714.714 0 0 0 .7.807h4.86a.71.71 0 0 0 .699-.632l4.411-36.651a.714.714 0 0 0-.7-.807h-4.859a.71.71 0 0 0-.7.631M205.106 38.32l-.22-.74c-.005-.024-.02-.036-.05-.036h-1.858c-.029 0-.045.012-.05.036l-.22.74c-.019.063-.06.093-.127.093h-.645c-.038 0-.066-.011-.082-.036-.017-.023-.02-.054-.01-.093l1.517-4.808c.02-.062.061-.094.128-.094h.83c.066 0 .109.032.128.094l1.525 4.808c.005.01.007.024.007.043 0 .058-.033.086-.1.086h-.644c-.068 0-.11-.03-.129-.093m-1.922-1.43h1.447c.029 0 .04-.017.035-.05l-.73-2.444c-.005-.02-.013-.029-.025-.029-.013 0-.022.01-.032.029l-.73 2.443c-.006.034.007.05.035.05M207.674 38.26a1.497 1.497 0 0 1-.624-.602 1.775 1.775 0 0 1-.22-.89v-1.74c0-.34.074-.638.22-.894.147-.256.355-.456.624-.597a1.99 1.99 0 0 1 .937-.212c.35 0 .659.07.926.208.267.14.474.328.62.568.147.24.22.51.22.812v.03c0 .076-.038.114-.113.114h-.589a.154.154 0 0 1-.081-.018c-.022-.012-.032-.027-.032-.047v-.057a.853.853 0 0 0-.26-.64c-.172-.168-.402-.251-.691-.251-.289 0-.52.087-.695.262-.175.175-.263.406-.263.694v1.796c0 .288.093.519.277.694.184.175.423.263.716.263.284 0 .507-.076.67-.227.164-.151.246-.358.246-.622v-.438c0-.029-.015-.044-.043-.044h-.837c-.076 0-.114-.038-.114-.115v-.474c0-.076.038-.115.114-.115h1.582c.075 0 .113.039.113.115v.892c0 .55-.16.98-.478 1.286-.32.306-.749.46-1.288.46a1.99 1.99 0 0 1-.937-.212M214.854 34.101h-2.384c-.028 0-.042.014-.042.043v1.33c0 .029.014.043.042.043h1.59c.075 0 .113.038.113.115v.49c0 .075-.038.114-.114.114h-1.59c-.027 0-.041.014-.041.043v1.373c0 .029.014.043.042.043h2.384c.075 0 .113.038.113.115v.488c0 .077-.038.115-.113.115h-3.135c-.076 0-.114-.038-.114-.115v-4.8c0-.077.038-.116.114-.116h3.135c.075 0 .113.039.113.116v.488c0 .077-.038.115-.113.115M216.16 38.298v-4.8c0-.077.038-.116.113-.116h.568c.065 0 .114.027.141.08l1.986 3.291c.01.02.021.026.033.022.011-.005.017-.017.017-.036v-3.241c0-.077.038-.116.114-.116h.596c.075 0 .114.039.114.116v4.8c0 .077-.039.115-.114.115h-.581c-.068 0-.114-.026-.143-.079l-1.986-3.313c-.01-.02-.02-.026-.032-.021-.012.004-.018.017-.018.035l.007 3.263c0 .077-.038.115-.113.115h-.589c-.075 0-.113-.038-.113-.115M221.948 38.26a1.51 1.51 0 0 1-.624-.594 1.733 1.733 0 0 1-.22-.884v-1.775c0-.335.073-.63.22-.884a1.49 1.49 0 0 1 .624-.59 2.02 2.02 0 0 1 .936-.208c.35 0 .66.067.93.2.27.135.478.324.624.569.147.244.22.528.22.848 0 .048-.035.077-.107.087l-.602.035h-.03c-.055 0-.084-.012-.084-.035v-.044c0-.282-.086-.51-.259-.683-.172-.172-.403-.258-.692-.258-.288 0-.52.086-.694.258-.175.173-.263.4-.263.683v1.833c0 .278.088.503.263.676.174.172.406.259.694.259.29 0 .52-.086.692-.256.173-.17.26-.396.26-.68 0-.023.01-.043.031-.06.021-.017.048-.023.082-.018l.596.028c.075.01.113.022.113.037v.035c0 .327-.073.613-.22.86a1.467 1.467 0 0 1-.625.57 2.053 2.053 0 0 1-.929.202 1.99 1.99 0 0 1-.936-.212M226.929 38.292v-1.89a.118.118 0 0 0-.015-.051l-1.433-2.832a.133.133 0 0 1-.021-.065c0-.048.033-.071.1-.071h.645c.061 0 .106.028.134.086l.972 1.976c.01.014.02.022.033.022.011 0 .02-.008.024-.022l.98-1.976a.14.14 0 0 1 .134-.086h.653c.066 0 .1.023.1.071 0 .02-.008.04-.023.065l-1.446 2.832a.246.246 0 0 0-.015.05v1.89c0 .077-.038.115-.114.115h-.595c-.075 0-.113-.038-.113-.114M202.482 31.11v-4.8c0-.077.038-.115.113-.115h1.703c.336 0 .632.06.887.18s.453.29.592.514c.14.222.21.482.21.78v2.084c0 .297-.07.557-.21.78-.14.222-.337.394-.592.514-.255.12-.551.179-.887.179h-1.703c-.075 0-.113-.039-.113-.115m.865-.604h.986c.251 0 .45-.08.6-.24.149-.161.226-.375.23-.644v-1.818c0-.274-.075-.49-.226-.65-.152-.161-.355-.241-.611-.241h-.979c-.028 0-.042.014-.042.043v3.507c0 .03.014.043.042.043M210.47 26.914h-2.384c-.028 0-.042.014-.042.043v1.33c0 .028.014.042.042.042h1.59c.075 0 .113.039.113.115v.49c0 .076-.038.114-.114.114h-1.589c-.028 0-.042.015-.042.044v1.372c0 .03.014.043.042.043h2.384c.076 0 .114.038.114.115v.489c0 .077-.038.115-.114.115h-3.135c-.076 0-.114-.038-.114-.115v-4.8c0-.078.038-.116.114-.116h3.135c.076 0 .114.038.114.115v.489c0 .076-.038.115-.114.115M213.024 31.133l-1.469-4.809a.104.104 0 0 1-.007-.042c0-.058.034-.087.1-.087h.645c.066 0 .109.031.128.093l1.05 3.716c.01.02.02.029.031.029.012 0 .02-.01.025-.029l1.044-3.709c.013-.067.056-.1.127-.1h.632c.038 0 .065.012.082.036.015.024.02.055.01.093l-1.49 4.809c-.02.062-.061.093-.128.093h-.652c-.067 0-.11-.031-.128-.093M219.706 26.914h-2.383c-.029 0-.043.014-.043.043v1.33c0 .028.014.042.043.042h1.59c.075 0 .112.039.112.115v.49c0 .076-.037.114-.112.114h-1.59c-.029 0-.043.015-.043.044v1.372c0 .03.014.043.043.043h2.383c.076 0 .114.038.114.115v.489c0 .077-.038.115-.114.115h-3.135c-.076 0-.114-.038-.114-.115v-4.8c0-.078.038-.116.114-.116h3.135c.076 0 .114.038.114.115v.489c0 .076-.038.115-.114.115M221.012 31.11v-4.8c0-.077.038-.115.113-.115h.597c.076 0 .113.038.113.115v4.154c0 .03.014.043.043.043h2.341c.076 0 .114.038.114.116v.488c0 .076-.038.115-.114.115h-3.094c-.075 0-.113-.039-.113-.115M226.113 31.079a1.538 1.538 0 0 1-.635-.622 1.868 1.868 0 0 1-.224-.927V27.89c0-.345.076-.65.228-.917.15-.265.363-.47.634-.617.272-.146.586-.22.94-.22.36 0 .675.074.948.22.272.146.484.352.635.617.15.266.226.572.226.917v1.639c0 .35-.075.659-.226.927a1.567 1.567 0 0 1-.635.622 1.98 1.98 0 0 1-.947.219c-.355 0-.67-.074-.944-.219m1.66-.78c.18-.187.27-.434.27-.74v-1.675c0-.311-.09-.56-.27-.748-.18-.187-.418-.28-.716-.28-.294 0-.53.093-.71.28-.18.187-.27.437-.27.748v1.675c0 .306.09.553.27.74.18.187.416.28.71.28.298 0 .537-.093.716-.28M232.917 26.374c.226.125.402.301.528.529.125.227.188.49.188.787 0 .292-.064.55-.191.776-.129.225-.31.399-.543.52a1.726 1.726 0 0 1-.813.185h-1.128c-.028 0-.042.014-.042.043v1.897c0 .077-.038.115-.114.115h-.596c-.075 0-.113-.038-.113-.115v-4.808c0-.077.038-.116.113-.116h1.923c.298 0 .56.063.788.187m-.327 1.905a.76.76 0 0 0 .22-.567.793.793 0 0 0-.22-.582.782.782 0 0 0-.582-.224h-1.05c-.028 0-.042.014-.042.043v1.503c0 .029.014.043.042.043h1.05c.242 0 .435-.072.582-.216M234.71 31.11v-4.8c0-.077.039-.115.114-.115h.604c.066 0 .113.027.142.079l1.107 1.812c.009.014.02.02.032.02s.02-.006.025-.02l1.12-1.812c.029-.052.076-.08.142-.08h.596c.075 0 .113.04.113.116v4.8c0 .077-.038.116-.113.116h-.596c-.075 0-.113-.039-.113-.115v-3.4c0-.019-.006-.03-.019-.036-.011-.004-.022.003-.03.022l-.845 1.401c-.03.054-.076.08-.142.08h-.277c-.067 0-.114-.026-.142-.08l-.844-1.401c-.01-.02-.02-.026-.032-.022-.011.006-.018.017-.018.037v3.399c0 .076-.037.115-.113.115h-.597c-.075 0-.113-.039-.113-.115M243.281 26.914h-2.384c-.028 0-.042.014-.042.043v1.33c0 .028.014.042.042.042h1.59c.075 0 .113.039.113.115v.49c0 .076-.038.114-.113.114h-1.59c-.028 0-.042.015-.042.044v1.372c0 .03.014.043.042.043h2.384c.075 0 .113.038.113.115v.489c0 .077-.038.115-.113.115h-3.136c-.075 0-.113-.038-.113-.115v-4.8c0-.078.038-.116.113-.116h3.136c.075 0 .113.038.113.115v.489c0 .076-.038.115-.113.115M244.586 31.11v-4.8c0-.077.038-.115.114-.115h.568c.066 0 .113.027.142.079l1.986 3.292c.009.02.02.026.032.021.012-.005.018-.017.018-.036v-3.24c0-.078.038-.116.113-.116h.596c.075 0 .113.038.113.115v4.8c0 .077-.038.116-.113.116h-.582c-.066 0-.113-.026-.142-.08l-1.986-3.312c-.01-.02-.02-.027-.032-.022-.012.005-.018.017-.018.036l.007 3.263c0 .076-.037.115-.113.115h-.589c-.076 0-.114-.039-.114-.115" fill="#FFF"/>
        <g transform="translate(249.375 26.195)">
            <mask id="nntyovj1yb" fill="#fff">
                <use xlink:href="#nygll49c4a"/>
            </mask>
            <path d="M3.625.115v.496c0 .077-.038.115-.113.115h-1.27c-.03 0-.043.014-.043.043v4.147c0 .077-.038.115-.113.115H1.49c-.076 0-.114-.038-.114-.115V.769c0-.029-.014-.043-.042-.043H.114C.038.726 0 .688 0 .61V.115C0 .04.038 0 .114 0h3.398c.075 0 .113.039.113.115" fill="#FFF" mask="url(#nntyovj1yb)"/>
        </g>
        <path d="M.162 37.692v-3.595c0-.399.142-.744.43-1.035 1.684-1.815 4.497-5.046 8.44-9.694l3.441-4.031c3.297-3.886 4.947-6.827 4.947-8.824 0-1.49-.52-2.705-1.56-3.65-1.04-.944-2.384-1.416-4.032-1.416-1.649 0-2.983.472-4.005 1.416C6.8 7.808 6.29 9.061 6.29 10.621v1.199c0 .581-.288.87-.86.87H.86c-.574 0-.861-.289-.861-.87V9.696c.072-1.961.627-3.667 1.667-5.12 1.04-1.452 2.446-2.578 4.22-3.378C7.662.401 9.642 0 11.828 0c2.401 0 4.498.454 6.29 1.362 1.793.908 3.173 2.152 4.14 3.731.968 1.58 1.452 3.35 1.452 5.31 0 2.978-1.56 6.41-4.677 10.294a110.847 110.847 0 0 1-4.087 4.958 702.154 702.154 0 0 1-4.73 5.392L8.71 32.735c-.108.11-.144.201-.108.273.036.073.126.108.27.108H23.71c.573 0 .86.292.86.872v3.704c0 .58-.287.872-.86.872H1.022c-.574 0-.86-.291-.86-.872M33.71 37.692V1.308c0-.58.286-.872.86-.872h12.903c2.544 0 4.785.455 6.72 1.362 1.935.908 3.432 2.205 4.49 3.894 1.056 1.688 1.586 3.659 1.586 5.91v15.796c0 2.252-.53 4.22-1.586 5.909-1.058 1.689-2.555 2.988-4.49 3.895-1.935.908-4.176 1.362-6.72 1.362H34.57c-.574 0-.86-.291-.86-.872m6.559-4.576h7.473c1.9 0 3.414-.607 4.543-1.824 1.129-1.216 1.711-2.84 1.747-4.875v-13.78c0-2.07-.574-3.712-1.72-4.93-1.148-1.216-2.689-1.825-4.624-1.825h-7.42c-.214 0-.322.11-.322.328v26.58c0 .218.108.326.323.326M91.881 37.392c-2.043-1.07-3.62-2.587-4.73-4.547-1.113-1.961-1.668-4.212-1.668-6.754V12.909c0-2.578.555-4.839 1.667-6.781 1.11-1.942 2.688-3.45 4.731-4.521C93.924.537 96.29 0 98.978 0c2.652 0 4.99.527 7.016 1.58 2.025 1.053 3.593 2.488 4.704 4.302 1.11 1.817 1.667 3.869 1.667 6.156v.218c0 .581-.287.87-.86.87h-4.463c-.25 0-.457-.044-.618-.135-.161-.09-.242-.209-.242-.354V12.2c0-1.96-.654-3.576-1.962-4.847-1.31-1.27-3.056-1.907-5.242-1.907-2.187 0-3.943.663-5.27 1.988-1.325 1.326-1.989 3.078-1.989 5.256v13.617c0 2.179.7 3.932 2.098 5.257 1.397 1.325 3.207 1.987 5.43 1.987 2.15 0 3.844-.572 5.08-1.715 1.237-1.144 1.855-2.715 1.855-4.712v-3.322c0-.218-.107-.327-.322-.327h-6.344c-.574 0-.86-.29-.86-.872V19.01c0-.58.286-.871.86-.871h11.989c.573 0 .86.29.86.87v6.755c0 4.176-1.21 7.426-3.63 9.749-2.418 2.325-5.671 3.487-9.757 3.487-2.688 0-5.054-.536-7.097-1.608M163.815 1.308v3.758c0 .581-.287.871-.86.871h-9.623c-.216 0-.323.11-.323.327v31.428c0 .581-.287.872-.86.872h-4.517c-.573 0-.86-.291-.86-.872V6.264c0-.218-.107-.327-.322-.327h-9.248c-.573 0-.86-.29-.86-.871V1.308c0-.58.287-.872.86-.872h25.753c.573 0 .86.291.86.872M174.909 37.638c-2.062-.908-3.648-2.187-4.758-3.84-1.112-1.652-1.667-3.568-1.667-5.747v-1.143c0-.581.286-.872.86-.872h4.409c.573 0 .86.272.86.817v.872c0 1.67.726 3.06 2.177 4.166 1.452 1.109 3.378 1.661 5.78 1.661 2.186 0 3.835-.471 4.946-1.415 1.11-.944 1.667-2.16 1.667-3.65 0-1.016-.305-1.88-.914-2.587-.61-.708-1.479-1.353-2.608-1.934-1.129-.58-2.822-1.307-5.08-2.178-2.546-.944-4.606-1.834-6.183-2.67a11.552 11.552 0 0 1-3.952-3.404c-1.057-1.433-1.585-3.222-1.585-5.365 0-3.195 1.146-5.72 3.44-7.571C174.594.926 177.659 0 181.495 0c2.688 0 5.062.473 7.123 1.416 2.061.945 3.665 2.26 4.812 3.95 1.147 1.688 1.72 3.64 1.72 5.855v.707c0 .583-.287.872-.86.872h-4.408c-.252 0-.457-.063-.619-.19a.571.571 0 0 1-.242-.463v-.6c0-1.707-.69-3.15-2.07-4.33-1.38-1.18-3.288-1.77-5.725-1.77-1.972 0-3.504.418-4.597 1.252-1.094.837-1.64 2.016-1.64 3.541 0 1.09.287 1.98.86 2.67s1.434 1.316 2.581 1.878c1.147.564 2.921 1.28 5.323 2.152 2.544.98 4.578 1.87 6.102 2.669 1.523.799 2.83 1.916 3.925 3.35 1.092 1.434 1.64 3.223 1.64 5.364 0 2.107-.539 3.969-1.614 5.584-1.075 1.616-2.616 2.868-4.623 3.758-2.008.89-4.374 1.335-7.097 1.335-2.724 0-5.117-.454-7.177-1.362" fill="#FFF"/>
    </g>
</svg>
